<?xml version="1.0" standalone="no"?>
<!DOCTYPE svg PUBLIC "-//W3C//DTD SVG 20010904//EN"
 "http://www.w3.org/TR/2001/REC-SVG-20010904/DTD/svg10.dtd">
<svg version="1.0" xmlns="http://www.w3.org/2000/svg"
 width="120.000000pt" height="120.000000pt" viewBox="0 0 120.000000 120.000000"
 preserveAspectRatio="xMidYMid meet">
<metadata>
Created by potrace 1.11, written by Peter Selinger 2001-2013
</metadata>
<g transform="translate(0.000000,120.000000) scale(0.100000,-0.100000)"
fill="#000000" stroke="none">
<path d="M1124 975 c-31 -21 -191 -61 -334 -83 -181 -27 -279 -23 -515 23
-160 31 -219 46 -226 58 -10 14 -39 1 -39 -18 0 -16 1 -16 65 -19 22 -1 103
-15 180 -31 l140 -30 -105 -7 c-58 -4 -141 -9 -185 -12 -57 -3 -82 -8 -89 -19
-11 -17 10 -51 25 -42 4 3 10 -29 12 -72 l3 -78 2 82 c3 118 -7 115 342 120
275 4 480 3 520 -2 14 -2 35 -4 48 -4 19 -1 21 -4 12 -20 -20 -38 -7 -91 23
-91 5 0 1 7 -7 16 -9 8 -16 26 -16 39 0 25 36 58 53 48 5 -3 26 -8 46 -10 54
-7 63 -19 56 -72 -3 -25 -8 -64 -10 -86 l-5 -40 20 40 c11 22 20 56 20 76 0
24 5 39 16 43 10 4 14 15 12 33 -3 24 -7 28 -32 25 -16 -2 -68 1 -115 7 -47 6
-122 13 -166 16 -43 3 -81 7 -82 9 -2 2 20 6 49 10 66 8 215 44 245 58 12 6
32 8 44 5 25 -7 49 8 49 29 0 18 -30 18 -56 -1z"/>
<path d="M32 670 c0 -14 2 -19 5 -12 2 6 2 18 0 25 -3 6 -5 1 -5 -13z"/>
<path d="M1115 573 c-50 -108 -50 -107 -36 -99 6 4 11 4 11 0 0 -18 -46 -77
-101 -128 -73 -67 -85 -75 -76 -52 5 14 3 15 -13 6 -10 -5 -22 -16 -26 -23 -6
-9 -4 -9 8 1 11 8 18 9 23 3 3 -6 -7 -13 -22 -17 -15 -3 -42 -12 -60 -20 -17
-8 -37 -14 -44 -14 -7 0 -10 -3 -7 -6 11 -10 110 25 157 55 66 43 134 117 171
186 21 39 25 51 11 35 -28 -34 -26 -18 3 33 24 43 51 115 44 122 -2 2 -21 -35
-43 -82z"/>
<path d="M62 620 c0 -14 4 -36 8 -50 l8 -25 0 25 c0 14 -4 36 -8 50 l-8 25 0
-25z"/>
<path d="M41 604 c0 -11 3 -14 6 -6 3 7 2 16 -1 19 -3 4 -6 -2 -5 -13z"/>
<path d="M120 440 c0 -18 144 -160 162 -159 7 0 2 8 -12 17 -44 30 -112 96
-131 127 -11 17 -19 23 -19 15z"/>
<path d="M300 274 c0 -5 49 -27 90 -39 14 -4 23 -5 20 -2 -8 9 -110 47 -110
41z"/>
<path d="M440 220 c25 -8 177 -13 169 -6 -2 2 -47 6 -99 8 -52 3 -84 2 -70 -2z"/>
</g>
</svg>
